HIERARCHY
ROOT Hips
{
  OFFSET -35.4901 99.2528 17.4586
  CHANNELS 6 Xposition Yposition Zposition Zrotation Xrotation Yrotation
  JOINT LeftUpLeg
  {
    OFFSET 8.64259 1.95398 -2.38835
    CHANNELS 3 Zrotation Xrotation Yrotation
    JOINT LeftLeg
    {
      OFFSET 43.7702 0 0
      CHANNELS 3 Zrotation Xrotation Yrotation
      JOINT LeftFoot
      {
        OFFSET 40.6238 0 0
        CHANNELS 3 Zrotation Xrotation Yrotation
        JOINT LeftToeBase
        {
          OFFSET 12.7242 0 0
          CHANNELS 3 Zrotation Xrotation Yrotation
          End Site
          {
            OFFSET 0 0 0
          }
        }
      }
    }
  }
  JOINT RightUpLeg
  {
    OFFSET -8.2249 1.95398 -2.59336
    CHANNELS 3 Zrotation Xrotation Yrotation
    JOINT RightLeg
    {
      OFFSET 43.5653 0 0
      CHANNELS 3 Zrotation Xrotation Yrotation
      JOINT RightFoot
      {
        OFFSET 40.6238 0 0
        CHANNELS 3 Zrotation Xrotation Yrotation
        JOINT RightToeBase
        {
          OFFSET 12.7242 0 0
          CHANNELS 3 Zrotation Xrotation Yrotation
          End Site
          {
            OFFSET 0 0 0
          }
        }
      }
    }
  }
  JOINT Spine
  {
    OFFSET 0.165834 0.87714 6.61349
    CHANNELS 3 Zrotation Xrotation Yrotation
    JOINT Spine1
    {
      OFFSET 7.38963 1.71661e-005 0
      CHANNELS 3 Zrotation Xrotation Yrotation
      JOINT Spine2
      {
        OFFSET 11.9445 1.14441e-005 0
        CHANNELS 3 Zrotation Xrotation Yrotation
        JOINT Spine3
        {
          OFFSET 14.7254 4.19617e-005 0
          CHANNELS 3 Zrotation Xrotation Yrotation
          JOINT Spine4
          {
            OFFSET 10.9679 0 0
            CHANNELS 3 Zrotation Xrotation Yrotation
            JOINT RightShoulder
            {
              OFFSET 2.46616 -1.6653 3.69651
              CHANNELS 3 Zrotation Xrotation Yrotation
              JOINT RightArm
              {
                OFFSET 13.0012 0 0
                CHANNELS 3 Zrotation Xrotation Yrotation
                JOINT RightForeArm
                {
                  OFFSET 28.7848 1.52588e-005 0
                  CHANNELS 3 Zrotation Xrotation Yrotation
                  JOINT RightHand
                  {
                    OFFSET 26.5688 1.52588e-005 0
                    CHANNELS 3 Zrotation Xrotation Yrotation
                    End Site
                    {
                      OFFSET 0 0 0
                    }
                  }
                }
              }
            }
            JOINT LeftShoulder
            {
              OFFSET 2.38034 -1.29275 -3.7523
              CHANNELS 3 Zrotation Xrotation Yrotation
              JOINT LeftArm
              {
                OFFSET 16.3182 6.10351e-005 0
                CHANNELS 3 Zrotation Xrotation Yrotation
                JOINT LeftForeArm
                {
                  OFFSET 27.0901 0 0
                  CHANNELS 3 Zrotation Xrotation Yrotation
                  JOINT LeftHand
                  {
                    OFFSET 24.5451 1.52588e-005 0
                    CHANNELS 3 Zrotation Xrotation Yrotation
                    End Site
                    {
                      OFFSET 0 0 0
                    }
                  }
                }
              }
            }
            JOINT Neck
            {
              OFFSET 5.0226 -0.0266342 0
              CHANNELS 3 Zrotation Xrotation Yrotation
              JOINT Head
              {
                OFFSET 6.69364 2.86102e-005 0
                CHANNELS 3 Zrotation Xrotation Yrotation
                End Site
                {
                  OFFSET 0 0 0
                }
              }
            }
          }
        }
      }
    }
  }
}
MOTION
Frames:	10
Frame Time:	0.0416667
224.856 99.1799 229.276 -103.728 -58.8336 -101.479 -176.896 -1.5938 91.0499 -14.6839 13.7898 1.27072 64.7964 2.64202 3.85172 31.8912 -0.422983 0.459263 169.357 -5.65164 84.1044 -9.49541 -18.1032 -3.35643 66.4073 -3.63938 0.833953 20.9649 0.419795 0.0474096 0.140272 8.22827 -90.0287 10.4175 0.266319 -0.0804347 -1.25347 0.262503 -0.0920824 -23.7889 0.278167 0.00427512 -3.7762 0.278164 0.00427158 87.3093 -33.5803 -110.493 39.2894 -7.11727 -3.71894 1.19964 -24.6025 -18.3924 -26.3205 0.126354 -8.37516 -85.0983 -52.9357 86.4675 -21.8267 21.1376 -17.1664 -3.61429 -6.44801 -17.2996 -14.1058 4.07296 -43.3308 6.93296 0.154568 -6.31535 -5.76328 1.28937 3.71293 
224.877 99.083 229.492 -104.109 -58.4054 -101.927 -177.193 -2.3242 90.5676 -14.2003 13.7089 1.49389 64.4242 2.54343 3.81341 33.4201 -2.53169 4.2552 169.412 -5.16405 83.8725 -11.1438 -18.2876 -3.55647 67.1792 -3.91276 0.754314 21.0591 0.372975 0.139588 0.165382 8.25915 -90.0319 10.3557 0.314939 -0.0907849 -1.31519 0.310628 -0.104564 -23.8507 0.327657 0.00827828 -3.838 0.327659 0.00827559 87.1485 -32.894 -111.079 40.3085 -6.13436 -3.21164 0.915142 -24.6382 -18.5261 -26.9828 0.167425 -8.49018 -85.2297 -52.9563 86.2784 -22.2441 20.5183 -17.2382 -3.07439 -5.44336 -16.6666 -14.5239 4.18337 -43.0064 6.8912 -0.0162466 -6.34 -5.63335 1.12849 3.70869 
224.831 99.0324 229.557 -104.259 -58.4685 -102.045 -177.01 -1.8984 90.7399 -15.2433 13.385 1.34518 65.266 2.93355 3.59883 32.9407 -1.34295 2.06403 169.368 -4.82131 83.8193 -12.0855 -18.3218 -3.46081 67.598 -4.10806 0.592653 21.1762 0.38195 0.104826 0.116031 8.27323 -90.0525 10.3277 0.207113 -0.12219 -1.34329 0.201534 -0.131191 -23.8786 0.234261 -0.0542997 -3.86593 0.234261 -0.0542937 87.177 -32.7934 -111.069 40.1792 -6.42055 -3.13709 1.04233 -24.4988 -18.5432 -27.3155 0.175435 -8.45976 -85.0782 -53.0523 86.5111 -22.0454 20.6047 -17.196 -2.98482 -5.03859 -16.5794 -15.0816 4.25385 -41.9864 6.78386 0.206967 -6.31103 -5.56919 1.33445 3.82085 
224.861 98.9223 229.588 -104.498 -58.3093 -102.246 -176.309 -1.20806 91.2194 -16.7836 14.1933 0.585951 65.2702 2.90846 3.27474 33.8802 -1.57167 2.44247 169.648 -4.34907 83.8794 -13.4542 -18.1323 -3.63318 68.1941 -4.41563 0.518214 21.3812 0.295596 0.272369 0.117076 8.33456 -90.0817 10.2049 0.196005 -0.178865 -1.46611 0.187918 -0.187323 -24.0013 0.240679 -0.111687 -3.98868 0.240681 -0.111697 87.5083 -32.6196 -110.52 40.0943 -6.58474 -3.36242 0.89832 -24.6174 -18.277 -26.2022 0.288588 -9.2037 -85.1554 -53.2435 86.4228 -21.3989 20.9872 -17.5151 -3.2836 -5.43776 -16.4272 -15.5383 4.23382 -40.593 7.01015 0.173459 -6.0006 -5.26174 1.26574 3.68389 
224.901 98.7412 229.567 -104.803 -57.9821 -102.68 -176.225 -0.684507 91.007 -18.3445 14.2836 0.432383 66.2566 3.40564 4.61373 33.7533 -1.52553 2.36187 169.609 -3.41608 83.5373 -15.6348 -18.4493 -3.5672 69.3325 -4.96329 0.394727 21.2535 0.30673 0.262641 0.14836 8.39188 -90.0654 10.0903 0.265823 -0.152012 -1.58066 0.258895 -0.163573 -24.116 0.299237 -0.0650852 -4.10336 0.299227 -0.0650994 87.0866 -33.0939 -111.111 39.6128 -5.90604 -2.79163 0.819347 -24.7916 -19.1094 -26.1587 0.275739 -9.15923 -85.3896 -52.9215 86.0406 -21.2903 20.9877 -17.7655 -3.11691 -4.55333 -15.7317 -16.5175 4.3265 -38.9018 6.83679 0.175296 -6.205 -4.76678 1.31771 3.56199 
225.067 98.4782 229.53 -104.493 -57.1966 -102.827 -176.76 0.201033 90.195 -20.4335 12.6838 0.606081 66.7143 3.49437 3.77064 34.2597 -2.40946 4.01565 169.904 -1.59638 82.9934 -18.8125 -18.7717 -3.70122 70.6507 -5.59363 0.670902 21.2272 0.560988 -0.301161 0.19557 8.43045 -90.0608 10.0133 0.362156 -0.15056 -1.65762 0.355161 -0.166366 -24.1932 0.390639 -0.0347644 -4.18052 0.390646 -0.0347617 87.4292 -32.3013 -110.803 39.9702 -5.68315 -2.72428 0.815716 -24.3654 -19.1185 -27.0101 0.309316 -9.12097 -85.5254 -53.2059 85.8795 -21.2709 20.5229 -17.9668 -2.61061 -3.24916 -15.0676 -17.3519 4.25919 -36.5962 6.51349 0.196214 -6.00237 -4.83723 1.26372 4.19054 
224.892 98.1662 229.429 -105.237 -57.055 -103.609 -176.094 0.829615 90.5475 -22.3062 13.3879 0.0227346 67.7776 4.01996 4.21305 34.4349 -1.99729 3.22547 170.043 -0.689549 82.8521 -21.5594 -19.1014 -3.52094 71.8893 -6.36299 -0.454589 20.8689 0.36248 0.185833 0.159335 8.52891 -90.0445 9.81624 0.297522 -0.112204 -1.85468 0.292306 -0.125201 -24.3901 0.317469 -0.017599 -4.37746 0.317478 -0.0176038 87.322 -32.5845 -110.886 39.9224 -5.08342 -2.84181 0.472906 -24.9596 -18.8458 -26.3578 0.369905 -9.6144 -85.3246 -53.0426 86.1508 -21.4259 19.8048 -17.9769 -1.95187 -1.72847 -14.4955 -18.7699 4.34854 -34.4906 6.86892 0.240158 -5.62609 -4.94969 1.2703 3.22855 
224.69 97.9308 229.352 -106.029 -56.9278 -104.34 -175.917 1.13785 90.7078 -23.9987 13.6391 0.02392 68.4196 4.27894 3.87694 34.6787 -2.2437 3.6915 170.399 -0.145819 82.8509 -23.7479 -18.1519 -3.55611 73.0341 -6.80608 0.538183 20.5516 0.638499 -0.379808 0.124585 8.60634 -90.0786 9.66137 0.212816 -0.172572 -2.00956 0.205027 -0.181783 -24.5448 0.254847 -0.100639 -4.53219 0.254853 -0.100636 87.354 -32.1515 -111.01 40.1534 -5.17488 -2.45851 0.0436032 -23.7021 -19.6385 -26.8926 0.206302 -8.56434 -85.3857 -53.2656 86.0908 -21.5592 19.0128 -18.0441 -1.31266 -0.189415 -13.5238 -19.7095 4.24409 -32.2463 6.07817 0.540479 -6.09371 -3.65467 1.64461 3.87838 
224.415 97.8136 229.223 -105.919 -56.5499 -104.251 -175.445 1.53255 91.1922 -24.841 13.3252 -0.39974 68.7625 4.36569 3.51444 34.9038 -2.03115 3.27822 170.812 0.291793 83.0734 -24.855 -18.2625 -3.61034 73.5726 -7.2252 -0.0374707 20.819 0.336394 0.250182 0.167038 8.64826 -90.0551 9.57756 0.30822 -0.132902 -2.09334 0.302068 -0.146345 -24.6288 0.333924 -0.0341202 -4.61614 0.3339 -0.0341318 87.3093 -33.0049 -110.732 39.6789 -5.00325 -2.28446 -0.564015 -24.6112 -19.3959 -26.6748 0.312974 -9.2528 -85.6198 -52.2795 85.6189 -22.245 18.3977 -17.7408 -0.608314 1.39342 -13.1308 -20.4207 3.90767 -29.1597 6.24124 0.303459 -6.45628 -3.69298 1.49055 3.73305 
224.196 97.6682 229.12 -105.145 -55.8663 -103.877 -175.613 1.81655 90.965 -25.1196 12.4063 -0.500993 68.8544 4.23766 2.76472 35.4836 -2.44624 4.06796 171.433 1.36124 83.0483 -26.4031 -17.7484 -3.92599 74.315 -7.50668 0.772394 20.7516 0.515043 -0.134603 0.168643 8.62772 -90.0448 9.61861 0.316102 -0.113393 -2.05231 0.310818 -0.127206 -24.5878 0.335576 -0.0131497 -4.57512 0.335574 -0.0131536 87.2863 -32.3582 -111.049 41.8685 0.390181 -1.5071 -5.96779 -29.515 -22.0199 -21.4801 -0.00855767 -9.38206 -85.1851 -52.6116 86.2999 -21.7207 18.5253 -17.4902 -0.685645 1.75709 -12.4265 -20.5256 3.48444 -26.4675 6.11665 0.586266 -6.0892 -4.03665 1.6765 3.91657 
